{
  "accessors": [
    {
      "bufferView": 2,
      "componentType": 5126,
      "count": 11416,
      "max": [
        0.5073235034942627,
        1.7348459959030151,
        0.648423969745636
      ],
      "min": [
        -0.5302140116691589,
        -0.007029143627732992,
        -2.5299630165100098
      ],
      "type": "VEC3"
    },
    {
      "bufferView": 2,
      "byteOffset": 136992,
      "componentType": 5126,
      "count": 11416,
      "max": [
        0.9999331831932068,
        0.9999946355819702,
        0.9999935030937195
      ],
      "min": [
        -0.9999246597290039,
        -0.9999996423721313,
        -0.9998530745506287
      ],
      "type": "VEC3"
    },
    {
      "bufferView": 1,
      "componentType": 5126,
      "count": 11416,
      "max": [
        0.9976704120635986,
        0.997854471206665
      ],
      "min": [
        0.002329563954845071,
        0.002145528793334961
      ],
      "type": "VEC2"
    },
    {
      "bufferView": 1,
      "byteOffset": 91328,
      "componentType": 5126,
      "count": 11416,
      "max": [
        0.9976704120635986,
        0.997854471206665
      ],
      "min": [
        0.002329563954845071,
        0.002145528793334961
      ],
      "type": "VEC2"
    },
    {
      "bufferView": 1,
      "byteOffset": 182656,
      "componentType": 5126,
      "count": 11416,
      "max": [
        0.9976704120635986,
        0.997854471206665
      ],
      "min": [
        0.002329563954845071,
        0.002145528793334961
      ],
      "type": "VEC2"
    },
    {
      "bufferView": 0,
      "componentType": 5125,
      "count": 57780,
      "type": "SCALAR"
    },
    {
      "bufferView": 2,
      "byteOffset": 273984,
      "componentType": 5126,
      "count": 2852,
      "max": [
        0.048839665949344635,
        1.5998672246932983,
        0.6228455901145935
      ],
      "min": [
        -0.04939931631088257,
        1.5287861824035645,
        0.5429360866546631
      ],
      "type": "VEC3"
    },
    {
      "bufferView": 2,
      "byteOffset": 308208,
      "componentType": 5126,
      "count": 2852,
      "max": [
        0.9988260865211487,
        0.9993830919265747,
        0.9998311400413513
      ],
      "min": [
        -0.9993600845336914,
        -0.9687929153442383,
        -0.999556839466095
      ],
      "type": "VEC3"
    },
    {
      "bufferView": 1,
      "byteOffset": 273984,
      "componentType": 5126,
      "count": 2852,
      "max": [
        0.997057318687439,
        0.07927155494689941
      ],
      "min": [
        0.7236679196357727,
        0.008481740951538086
      ],
      "type": "VEC2"
    },
    {
      "bufferView": 1,
      "byteOffset": 296800,
      "componentType": 5126,
      "count": 2852,
      "max": [
        0.997057318687439,
        0.07927155494689941
      ],
      "min": [
        0.7236679196357727,
        0.008481740951538086
      ],
      "type": "VEC2"
    },
    {
      "bufferView": 1,
      "byteOffset": 319616,
      "componentType": 5126,
      "count": 2852,
      "max": [
        0.997057318687439,
        0.07927155494689941
      ],
      "min": [
        0.7236679196357727,
        0.008481740951538086
      ],
      "type": "VEC2"
    },
    {
      "bufferView": 0,
      "byteOffset": 231120,
      "componentType": 5125,
      "count": 10662,
      "type": "SCALAR"
    },
    {
      "bufferView": 2,
      "byteOffset": 342432,
      "componentType": 5126,
      "count": 187,
      "max": [
        0.02191876247525215,
        1.5724412202835083,
        0.600379228591919
      ],
      "min": [
        -0.021918222308158875,
        1.5454262495040894,
        0.5126795172691345
      ],
      "type": "VEC3"
    },
    {
      "bufferView": 2,
      "byteOffset": 344676,
      "componentType": 5126,
      "count": 187,
      "max": [
        0.9399666786193848,
        0.9993940591812134,
        0.9850224852561951
      ],
      "min": [
        -0.9492077827453613,
        -0.9981076717376709,
        -0.5042962431907654
      ],
      "type": "VEC3"
    },
    {
      "bufferView": 3,
      "componentType": 5126,
      "count": 187,
      "max": [
        0.9999998807907104,
        0.944299042224884,
        0.948439359664917,
        -1.0
      ],
      "min": [
        -0.9999996423721313,
        -0.950718343257904,
        -0.8968378901481628,
        -1.0
      ],
      "type": "VEC4"
    },
    {
      "bufferView": 1,
      "byteOffset": 342432,
      "componentType": 5126,
      "count": 187,
      "max": [
        0.4885067045688629,
        0.11005961894989014
      ],
      "min": [
        0.4587570130825043,
        0.0057721734046936035
      ],
      "type": "VEC2"
    },
    {
      "bufferView": 1,
      "byteOffset": 343928,
      "componentType": 5126,
      "count": 187,
      "max": [
        0.4885067045688629,
        0.11005961894989014
      ],
      "min": [
        0.4587570130825043,
        0.0057721734046936035
      ],
      "type": "VEC2"
    },
    {
      "bufferView": 1,
      "byteOffset": 345424,
      "componentType": 5126,
      "count": 187,
      "max": [
        0.4885067045688629,
        0.11005961894989014
      ],
      "min": [
        0.4587570130825043,
        0.0057721734046936035
      ],
      "type": "VEC2"
    },
    {
      "bufferView": 0,
      "byteOffset": 273768,
      "componentType": 5125,
      "count": 912,
      "type": "SCALAR"
    },
    {
      "bufferView": 2,
      "byteOffset": 346920,
      "componentType": 5126,
      "count": 324,
      "max": [
        0.044313572347164154,
        1.6525472402572632,
        0.5719289183616638
      ],
      "min": [
        -0.04431305453181267,
        1.6298322677612305,
        0.5490596890449524
      ],
      "type": "VEC3"
    },
    {
      "bufferView": 2,
      "byteOffset": 350808,
      "componentType": 5126,
      "count": 324,
      "max": [
        0.9931467175483704,
        0.9862240552902222,
        0.9916048049926758
      ],
      "min": [
        -0.9931461811065674,
        -0.9862073063850403,
        -0.9916000366210938
      ],
      "type": "VEC3"
    },
    {
      "bufferView": 1,
      "byteOffset": 346920,
      "componentType": 5126,
      "count": 324,
      "max": [
        0.719184398651123,
        0.13616859912872314
      ],
      "min": [
        0.6273847222328186,
        0.00394052267074585
      ],
      "type": "VEC2"
    },
    {
      "bufferView": 1,
      "byteOffset": 349512,
      "componentType": 5126,
      "count": 324,
      "max": [
        0.719184398651123,
        0.13616859912872314
      ],
      "min": [
        0.6273847222328186,
        0.00394052267074585
      ],
      "type": "VEC2"
    },
    {
      "bufferView": 1,
      "byteOffset": 352104,
      "componentType": 5126,
      "count": 324,
      "max": [
        0.719184398651123,
        0.13616859912872314
      ],
      "min": [
        0.6273847222328186,
        0.00394052267074585
      ],
      "type": "VEC2"
    },
    {
      "bufferView": 0,
      "byteOffset": 277416,
      "componentType": 5125,
      "count": 1728,
      "type": "SCALAR"
    },
    {
      "bufferView": 2,
      "byteOffset": 354696,
      "componentType": 5126,
      "count": 14303,
      "max": [
        0.20238983631134033,
        1.8186231851577759,
        0.32846948504447937
      ],
      "min": [
        -0.1902795284986496,
        0.09685412794351578,
        -2.387042284011841
      ],
      "type": "VEC3"
    },
    {
      "bufferView": 2,
      "byteOffset": 526332,
      "componentType": 5126,
      "count": 14303,
      "max": [
        0.9997951984405518,
        0.999845564365387,
        0.9999159574508667
      ],
      "min": [
        -0.9997444748878479,
        -0.9999738931655884,
        -0.9999487996101379
      ],
      "type": "VEC3"
    },
    {
      "bufferView": 1,
      "byteOffset": 354696,
      "componentType": 5126,
      "count": 14303,
      "max": [
        0.9949520230293274,
        0.9954146146774292
      ],
      "min": [
        0.005048043094575405,
        0.004585385322570801
      ],
      "type": "VEC2"
    },
    {
      "bufferView": 1,
      "byteOffset": 469120,
      "componentType": 5126,
      "count": 14303,
      "max": [
        0.9949520230293274,
        0.9954146146774292
      ],
      "min": [
        0.005048043094575405,
        0.004585385322570801
      ],
      "type": "VEC2"
    },
    {
      "bufferView": 1,
      "byteOffset": 583544,
      "componentType": 5126,
      "count": 14303,
      "max": [
        0.9949520230293274,
        0.9954146146774292
      ],
      "min": [
        0.005048043094575405,
        0.004585385322570801
      ],
      "type": "VEC2"
    },
    {
      "bufferView": 0,
      "byteOffset": 284328,
      "componentType": 5125,
      "count": 59475,
      "type": "SCALAR"
    }
  ],
  "asset": {
    "extras": {
      "author": "ArachnoBoy (https://sketchfab.com/vang807)",
      "license": "SKETCHFAB Standard (https://sketchfab.com/licenses)",
      "source": "https://sketchfab.com/3d-models/godzilla-minus-one-ccaf341a3e734263a88cecb5c49eac0e",
      "title": "Godzilla Minus One"
    },
    "generator": "Sketchfab-16.7.0",
    "version": "2.0"
  },
  "bufferViews": [
    {
      "buffer": 0,
      "byteLength": 522228,
      "name": "floatBufferViews",
      "target": 34963
    },
    {
      "buffer": 0,
      "byteLength": 697968,
      "byteOffset": 522228,
      "byteStride": 8,
      "name": "floatBufferViews",
      "target": 34962
    },
    {
      "buffer": 0,
      "byteLength": 697968,
      "byteOffset": 1220196,
      "byteStride": 12,
      "name": "floatBufferViews",
      "target": 34962
    },
    {
      "buffer": 0,
      "byteLength": 2992,
      "byteOffset": 1918164,
      "byteStride": 16,
      "name": "floatBufferViews",
      "target": 34962
    }
  ],
  "buffers": [
    {
      "byteLength": 1921156,
      "uri": "scene.bin"
    }
  ],
  "extensionsUsed": [
    "KHR_materials_clearcoat",
    "KHR_materials_specular"
  ],
  "images": [
    {
      "uri": "textures/Material_baseColor.jpeg"
    },
    {
      "uri": "textures/Material_metallicRoughness.png"
    },
    {
      "uri": "textures/Material_clearcoat.png"
    },
    {
      "uri": "textures/Material_clearcoat_normal.png"
    },
    {
      "uri": "textures/Material_specularf0.png"
    },
    {
      "uri": "textures/Material.026_metallicRoughness.png"
    },
    {
      "uri": "textures/Material.027_metallicRoughness.png"
    },
    {
      "uri": "textures/Material.027_normal.jpeg"
    },
    {
      "uri": "textures/Material.027_clearcoat_roughness.png"
    },
    {
      "uri": "textures/Material.029_baseColor.png"
    },
    {
      "uri": "textures/Material.029_metallicRoughness.png"
    },
    {
      "uri": "textures/Material.029_clearcoat.png"
    },
    {
      "uri": "textures/Material.029_clearcoat_normal.png"
    },
    {
      "uri": "textures/Material.029_specularf0.png"
    }
  ],
  "materials": [
    {
      "doubleSided": true,
      "extensions": {
        "KHR_materials_clearcoat": {
          "clearcoatFactor": 1.0,
          "clearcoatNormalTexture": {
            "index": 3
          },
          "clearcoatRoughnessFactor": 1.0,
          "clearcoatRoughnessTexture": {
            "index": 1
          },
          "clearcoatTexture": {
            "index": 2
          }
        },
        "KHR_materials_specular": {
          "specularColorFactor": [
            1.0,
            1.0,
            1.0
          ],
          "specularFactor": 1.0,
          "specularTexture": {
            "index": 4
          }
        }
      },
      "name": "Material",
      "occlusionTexture": {
        "index": 1
      },
      "pbrMetallicRoughness": {
        "baseColorTexture": {
          "index": 0
        },
        "metallicRoughnessTexture": {
          "index": 1
        }
      }
    },
    {
      "doubleSided": true,
      "extensions": {
        "KHR_materials_clearcoat": {
          "clearcoatFactor": 1.0,
          "clearcoatNormalTexture": {
            "index": 3
          },
          "clearcoatRoughnessFactor": 1.0,
          "clearcoatRoughnessTexture": {
            "index": 5
          },
          "clearcoatTexture": {
            "index": 2
          }
        },
        "KHR_materials_specular": {
          "specularColorFactor": [
            1.0,
            1.0,
            1.0
          ],
          "specularFactor": 1.0,
          "specularTexture": {
            "index": 4
          }
        }
      },
      "name": "Material.026",
      "pbrMetallicRoughness": {
        "baseColorTexture": {
          "index": 0
        },
        "metallicRoughnessTexture": {
          "index": 5
        }
      }
    },
    {
      "doubleSided": true,
      "extensions": {
        "KHR_materials_clearcoat": {
          "clearcoatFactor": 1.0,
          "clearcoatNormalTexture": {
            "index": 7
          },
          "clearcoatRoughnessFactor": 1.0,
          "clearcoatRoughnessTexture": {
            "index": 8
          },
          "clearcoatTexture": {
            "index": 2
          }
        },
        "KHR_materials_specular": {
          "specularColorFactor": [
            1.0,
            1.0,
            1.0
          ],
          "specularFactor": 1.0,
          "specularTexture": {
            "index": 4
          }
        }
      },
      "name": "Material.027",
      "normalTexture": {
        "index": 7
      },
      "pbrMetallicRoughness": {
        "baseColorTexture": {
          "index": 0
        },
        "metallicRoughnessTexture": {
          "index": 6
        },
        "roughnessFactor": 0.5
      }
    },
    {
      "doubleSided": true,
      "extensions": {
        "KHR_materials_clearcoat": {
          "clearcoatFactor": 1.0,
          "clearcoatNormalTexture": {
            "index": 3
          },
          "clearcoatRoughnessFactor": 1.0,
          "clearcoatRoughnessTexture": {
            "index": 1
          },
          "clearcoatTexture": {
            "index": 2
          }
        },
        "KHR_materials_specular": {
          "specularColorFactor": [
            1.0,
            1.0,
            1.0
          ],
          "specularFactor": 1.0,
          "specularTexture": {
            "index": 4
          }
        }
      },
      "name": "Material.028",
      "occlusionTexture": {
        "index": 1
      },
      "pbrMetallicRoughness": {
        "baseColorTexture": {
          "index": 0
        },
        "metallicRoughnessTexture": {
          "index": 1
        }
      }
    },
    {
      "doubleSided": true,
      "extensions": {
        "KHR_materials_clearcoat": {
          "clearcoatFactor": 1.0,
          "clearcoatNormalTexture": {
            "index": 12
          },
          "clearcoatRoughnessFactor": 1.0,
          "clearcoatRoughnessTexture": {
            "index": 10
          },
          "clearcoatTexture": {
            "index": 11
          }
        },
        "KHR_materials_specular": {
          "specularColorFactor": [
            1.0,
            1.0,
            1.0
          ],
          "specularFactor": 1.0,
          "specularTexture": {
            "index": 13
          }
        }
      },
      "name": "Material.029",
      "occlusionTexture": {
        "index": 10
      },
      "pbrMetallicRoughness": {
        "baseColorTexture": {
          "index": 9
        },
        "metallicRoughnessTexture": {
          "index": 10
        }
      }
    }
  ],
  "meshes": [
    {
      "name": "Object_0",
      "primitives": [
        {
          "attributes": {
            "NORMAL": 1,
            "POSITION": 0,
            "TEXCOORD_0": 2,
            "TEXCOORD_1": 3,
            "TEXCOORD_2": 4
          },
          "indices": 5,
          "material": 0,
          "mode": 4
        }
      ]
    },
    {
      "name": "Object_1",
      "primitives": [
        {
          "attributes": {
            "NORMAL": 7,
            "POSITION": 6,
            "TEXCOORD_0": 8,
            "TEXCOORD_1": 9,
            "TEXCOORD_2": 10
          },
          "indices": 11,
          "material": 1,
          "mode": 4
        }
      ]
    },
    {
      "name": "Object_2",
      "primitives": [
        {
          "attributes": {
            "NORMAL": 13,
            "POSITION": 12,
            "TANGENT": 14,
            "TEXCOORD_0": 15,
            "TEXCOORD_1": 16,
            "TEXCOORD_2": 17
          },
          "indices": 18,
          "material": 2,
          "mode": 4
        }
      ]
    },
    {
      "name": "Object_3",
      "primitives": [
        {
          "attributes": {
            "NORMAL": 20,
            "POSITION": 19,
            "TEXCOORD_0": 21,
            "TEXCOORD_1": 22,
            "TEXCOORD_2": 23
          },
          "indices": 24,
          "material": 3,
          "mode": 4
        }
      ]
    },
    {
      "name": "Object_4",
      "primitives": [
        {
          "attributes": {
            "NORMAL": 26,
            "POSITION": 25,
            "TEXCOORD_0": 27,
            "TEXCOORD_1": 28,
            "TEXCOORD_2": 29
          },
          "indices": 30,
          "material": 4,
          "mode": 4
        }
      ]
    }
  ],
  "nodes": [
    {
      "children": [
        1
      ],
      "matrix": [
        1.0,
        0.0,
        0.0,
        0.0,
        0.0,
        2.220446049250313e-16,
        -1.0,
        0.0,
        0.0,
        1.0,
        2.220446049250313e-16,
        0.0,
        0.0,
        0.0,
        0.0,
        1.0
      ],
      "name": "Sketchfab_model"
    },
    {
      "children": [
        2
      ],
      "name": "root"
    },
    {
      "children": [
        3
      ],
      "matrix": [
        1.0,
        0.0,
        0.0,
        0.0,
        0.0,
        2.220446049250313e-16,
        1.0,
        0.0,
        0.0,
        -1.0,
        2.220446049250313e-16,
        0.0,
        0.0,
        0.0,
        0.0,
        1.0
      ],
      "name": "GLTF_SceneRootNode"
    },
    {
      "children": [
        4
      ],
      "matrix": [
        1.0,
        0.0,
        0.0,
        0.0,
        0.0,
        2.220446049250313e-16,
        -1.0,
        0.0,
        0.0,
        1.0,
        2.220446049250313e-16,
        0.0,
        0.0,
        0.0,
        0.0,
        1.0
      ],
      "name": "Sketchfab_model_0"
    },
    {
      "children": [
        5
      ],
      "name": "root_1"
    },
    {
      "children": [
        6
      ],
      "matrix": [
        1.0,
        0.0,
        0.0,
        0.0,
        0.0,
        2.220446049250313e-16,
        1.0,
        0.0,
        0.0,
        -1.0,
        2.220446049250313e-16,
        0.0,
        0.0,
        0.0,
        0.0,
        1.0
      ],
      "name": "GLTF_SceneRootNode_2"
    },
    {
      "children": [
        7,
        9,
        11,
        13,
        15
      ],
      "matrix": [
        3.0970633029937744,
        0.0,
        0.0,
        0.0,
        0.0,
        3.0970633029937744,
        0.0,
        0.0,
        0.0,
        0.0,
        3.0970633029937744,
        0.0,
        0.0,
        0.0,
        0.0,
        1.0
      ],
      "name": "41_mesh0_0.1_16_16_2_3"
    },
    {
      "children": [
        8
      ],
      "name": "Object_4_4"
    },
    {
      "mesh": 0,
      "name": "Object_8"
    },
    {
      "children": [
        10
      ],
      "name": "Object_5_5"
    },
    {
      "mesh": 1,
      "name": "Object_10"
    },
    {
      "children": [
        12
      ],
      "name": "Object_6_6"
    },
    {
      "mesh": 2,
      "name": "Object_12"
    },
    {
      "children": [
        14
      ],
      "name": "Object_7_7"
    },
    {
      "mesh": 3,
      "name": "Object_14"
    },
    {
      "children": [
        16
      ],
      "name": "Object_8_8"
    },
    {
      "mesh": 4,
      "name": "Object_16"
    }
  ],
  "samplers": [
    {
      "magFilter": 9729,
      "minFilter": 9987,
      "wrapS": 10497,
      "wrapT": 10497
    }
  ],
  "scene": 0,
  "scenes": [
    {
      "name": "Sketchfab_Scene",
      "nodes": [
        0
      ]
    }
  ],
  "textures": [
    {
      "sampler": 0,
      "source": 0
    },
    {
      "sampler": 0,
      "source": 1
    },
    {
      "sampler": 0,
      "source": 2
    },
    {
      "sampler": 0,
      "source": 3
    },
    {
      "sampler": 0,
      "source": 4
    },
    {
      "sampler": 0,
      "source": 5
    },
    {
      "sampler": 0,
      "source": 6
    },
    {
      "sampler": 0,
      "source": 7
    },
    {
      "sampler": 0,
      "source": 8
    },
    {
      "sampler": 0,
      "source": 9
    },
    {
      "sampler": 0,
      "source": 10
    },
    {
      "sampler": 0,
      "source": 11
    },
    {
      "sampler": 0,
      "source": 12
    },
    {
      "sampler": 0,
      "source": 13
    }
  ]
}
